<svg width="31" height="25" viewBox="0 0 31 25" fill="none" xmlns="http://www.w3.org/2000/svg">
<rect width="21" height="21" fill="#D9D9D9"/>
<rect x="10" y="4" width="21" height="21" fill="#D9D9D9"/>
<path d="M5.575 15V4.5H10.285C11.495 4.5 12.425 4.745 13.075 5.235C13.725 5.715 14.05 6.375 14.05 7.215C14.05 7.785 13.92 8.265 13.66 8.655C13.41 9.045 13.07 9.345 12.64 9.555C12.21 9.765 11.745 9.87 11.245 9.87L11.515 9.42C12.115 9.42 12.645 9.525 13.105 9.735C13.565 9.945 13.93 10.255 14.2 10.665C14.47 11.065 14.605 11.565 14.605 12.165C14.605 13.065 14.265 13.765 13.585 14.265C12.915 14.755 11.915 15 10.585 15H5.575ZM7.075 13.785H10.525C11.355 13.785 11.99 13.645 12.43 13.365C12.87 13.085 13.09 12.645 13.09 12.045C13.09 11.435 12.87 10.99 12.43 10.71C11.99 10.43 11.355 10.29 10.525 10.29H6.94V9.075H10.15C10.91 9.075 11.5 8.935 11.92 8.655C12.34 8.375 12.55 7.955 12.55 7.395C12.55 6.835 12.34 6.415 11.92 6.135C11.5 5.855 10.91 5.715 10.15 5.715H7.075V13.785Z" fill="#1F191A"/>
<path d="M16.575 21V10.5H21.285C22.495 10.5 23.425 10.745 24.075 11.235C24.725 11.715 25.05 12.375 25.05 13.215C25.05 13.785 24.92 14.265 24.66 14.655C24.41 15.045 24.07 15.345 23.64 15.555C23.21 15.765 22.745 15.87 22.245 15.87L22.515 15.42C23.115 15.42 23.645 15.525 24.105 15.735C24.565 15.945 24.93 16.255 25.2 16.665C25.47 17.065 25.605 17.565 25.605 18.165C25.605 19.065 25.265 19.765 24.585 20.265C23.915 20.755 22.915 21 21.585 21H16.575ZM18.075 19.785H21.525C22.355 19.785 22.99 19.645 23.43 19.365C23.87 19.085 24.09 18.645 24.09 18.045C24.09 17.435 23.87 16.99 23.43 16.71C22.99 16.43 22.355 16.29 21.525 16.29H17.94V15.075H21.15C21.91 15.075 22.5 14.935 22.92 14.655C23.34 14.375 23.55 13.955 23.55 13.395C23.55 12.835 23.34 12.415 22.92 12.135C22.5 11.855 21.91 11.715 21.15 11.715H18.075V19.785Z" fill="#1F191A"/>
</svg>
