<svg width="64" height="64" viewBox="0 0 64 64" fill="none" xmlns="http://www.w3.org/2000/svg">
<ellipse cx="32.0204" cy="32.3824" rx="15.7399" ry="15.1011" transform="rotate(-48.2769 32.0204 32.3824)" fill="#DBD6D6"/>
<g clip-path="url(#clip0_44_524)">
<path d="M31.8193 16.3012C22.9805 16.3498 15.8589 23.556 15.9074 32.3889C15.9463 39.4617 20.5631 45.4315 26.9277 47.5116C27.7315 47.6582 28.0188 47.1616 28.0164 46.7336C28.0143 46.3536 27.9998 45.3486 27.9865 44.0147C23.5388 45.0031 22.5837 41.8933 22.5837 41.8933C21.8446 40.0534 20.7899 39.5641 20.7899 39.5641C19.3365 38.5831 20.8996 38.5955 20.8996 38.5955C22.5042 38.6957 23.3566 40.2271 23.3566 40.2271C24.797 42.6672 27.1101 41.9465 28.0248 41.5294C28.1592 40.4977 28.5723 39.7864 29.0241 39.3889C25.4699 39.0074 21.7274 37.653 21.6938 31.5221C21.6842 29.7711 22.2963 28.3417 23.3152 27.2161C23.136 26.8161 22.585 25.1891 23.4329 22.9804C23.4329 22.9804 24.7695 22.546 27.8418 24.5972C29.1209 24.2352 30.4799 24.0507 31.8388 24.0342C33.1988 24.0358 34.5588 24.2063 35.8417 24.5533C38.8733 22.4686 40.2136 22.8882 40.2136 22.8882C41.0847 25.0875 40.5517 26.7194 40.3979 27.1223C41.419 28.2367 42.0469 29.6603 42.0565 31.4102C42.0902 37.5551 38.3577 38.9307 34.8039 39.3412C35.3625 39.8171 35.8889 40.7993 35.8971 42.2942C35.9089 44.4342 35.8984 46.1583 35.9012 46.6793C35.9035 47.0953 36.1862 47.5937 37.0094 47.4282C43.3978 45.3001 47.9437 39.275 47.905 32.2121C47.8565 23.3793 40.6562 16.2517 31.8173 16.3002L31.8193 16.3012Z" fill="#1F191A"/>
</g>
<defs>
<clipPath id="clip0_44_524">
<rect width="32" height="32" fill="white" transform="translate(15.8174 15.9931) rotate(-0.314635)"/>
</clipPath>
</defs>
</svg>
